<svg width="53" height="53" viewBox="0 0 53 53" fill="none" xmlns="http://www.w3.org/2000/svg">
<path d="M47.3622 21.1096C47.3267 21.7488 47.1373 22.3701 46.8101 22.9204C46.5014 23.4667 46.0798 23.941 45.5734 24.3117C45.3528 24.4719 45.0938 24.5709 44.8226 24.5987L40.9359 25.1067C40.5047 25.1801 40.105 25.3799 39.7876 25.6808C38.6172 26.8071 37.4247 27.8892 35.7905 29.6117L33.9134 31.4667C33.6694 31.72 33.4945 32.0318 33.4055 32.3721L31.3297 40.7196C31.3385 40.8077 31.3385 40.8965 31.3297 40.9846C31.0421 41.6319 30.603 42.2005 30.0496 42.6425C29.4961 43.0845 28.8445 43.3869 28.1497 43.5242H27.3547C26.9219 43.5201 26.4915 43.4607 26.0738 43.3475C25.3974 43.14 24.7828 42.7683 24.2851 42.2654L18.6759 36.6783L8.36299 46.9912C8.04902 47.2838 7.63375 47.4431 7.20467 47.4355C6.77559 47.4279 6.3662 47.2541 6.06274 46.9507C5.75929 46.6472 5.58547 46.2378 5.57789 45.8087C5.57032 45.3797 5.7296 44.9644 6.02216 44.6504L16.3351 34.3375L10.8142 28.8167C10.3206 28.307 9.95698 27.6858 9.75424 27.0058C9.52996 26.3291 9.49182 25.6045 9.64382 24.9079C9.77354 24.2213 10.0692 23.5769 10.5051 23.0308C10.9465 22.4773 11.5146 22.038 12.1613 21.75H12.4263L20.6855 19.5417C21.0514 19.444 21.386 19.2539 21.6572 18.9896C24.7267 15.9642 25.7867 14.9042 27.4651 13.0933C27.7508 12.7908 27.9292 12.4029 27.973 11.9892L28.503 8.08041C28.5269 7.80153 28.6262 7.53439 28.7901 7.30749C29.355 6.54718 30.1494 5.98861 31.056 5.71424C31.9626 5.43988 32.9334 5.46424 33.8251 5.78374C34.4221 6.00387 34.9644 6.35039 35.4151 6.79958L46.1917 17.6204C46.6332 18.0684 46.9738 18.6056 47.1909 19.1959C47.408 19.7862 47.4965 20.4161 47.4505 21.0433L47.3622 21.1096Z" fill="#FF0101"/>
</svg>
